<mxfile host="Electron" modified="2023-05-01T18:50:13.265Z" agent="Mozilla/5.0 (Windows NT 10.0; Win64; x64) AppleWebKit/537.36 (KHTML, like Gecko) draw.io/21.2.1 Chrome/112.0.5615.87 Electron/24.1.2 Safari/537.36" etag="7QfMNWETlDz6GubjjiWJ" version="21.2.1" type="device">
  <diagram name="Page-1" id="0SUwLg295NydfQJ0HCyk">
    <mxGraphModel dx="1545" dy="817" grid="1" gridSize="10" guides="1" tooltips="1" connect="1" arrows="1" fold="1" page="1" pageScale="1" pageWidth="850" pageHeight="1100" math="0" shadow="0">
      <root>
        <mxCell id="0" />
        <mxCell id="1" parent="0" />
        <mxCell id="wv0iCeW0pls4u1Xk4wzR-1" value="" style="shape=umlLifeline;perimeter=lifelinePerimeter;whiteSpace=wrap;html=1;container=1;dropTarget=0;collapsible=0;recursiveResize=0;outlineConnect=0;portConstraint=eastwest;newEdgeStyle={&quot;edgeStyle&quot;:&quot;elbowEdgeStyle&quot;,&quot;elbow&quot;:&quot;vertical&quot;,&quot;curved&quot;:0,&quot;rounded&quot;:0};participant=umlActor;" vertex="1" parent="1">
          <mxGeometry x="30" y="150" width="20" height="2220" as="geometry" />
        </mxCell>
        <mxCell id="wv0iCeW0pls4u1Xk4wzR-2" value="Πελάτης" style="text;html=1;align=center;verticalAlign=middle;resizable=0;points=[];autosize=1;strokeColor=none;fillColor=none;" vertex="1" parent="1">
          <mxGeometry x="5" y="120" width="70" height="30" as="geometry" />
        </mxCell>
        <mxCell id="wv0iCeW0pls4u1Xk4wzR-3" value="" style="shape=umlLifeline;perimeter=lifelinePerimeter;whiteSpace=wrap;html=1;container=1;dropTarget=0;collapsible=0;recursiveResize=0;outlineConnect=0;portConstraint=eastwest;newEdgeStyle={&quot;edgeStyle&quot;:&quot;elbowEdgeStyle&quot;,&quot;elbow&quot;:&quot;vertical&quot;,&quot;curved&quot;:0,&quot;rounded&quot;:0};participant=umlBoundary;" vertex="1" parent="1">
          <mxGeometry x="170" y="150" width="50" height="2180" as="geometry" />
        </mxCell>
        <mxCell id="wv0iCeW0pls4u1Xk4wzR-5" value="" style="html=1;points=[];perimeter=orthogonalPerimeter;outlineConnect=0;targetShapes=umlLifeline;portConstraint=eastwest;newEdgeStyle={&quot;edgeStyle&quot;:&quot;elbowEdgeStyle&quot;,&quot;elbow&quot;:&quot;vertical&quot;,&quot;curved&quot;:0,&quot;rounded&quot;:0};" vertex="1" parent="wv0iCeW0pls4u1Xk4wzR-3">
          <mxGeometry x="20" y="70" width="10" height="40" as="geometry" />
        </mxCell>
        <mxCell id="wv0iCeW0pls4u1Xk4wzR-4" value="Κύρια Οθόνη &lt;br&gt;Χρήστη" style="text;html=1;align=center;verticalAlign=middle;resizable=0;points=[];autosize=1;strokeColor=none;fillColor=none;" vertex="1" parent="1">
          <mxGeometry x="150" y="115" width="90" height="40" as="geometry" />
        </mxCell>
        <mxCell id="wv0iCeW0pls4u1Xk4wzR-6" value="select_category()" style="html=1;verticalAlign=bottom;startArrow=oval;endArrow=block;startSize=8;edgeStyle=elbowEdgeStyle;elbow=vertical;curved=0;rounded=0;" edge="1" target="wv0iCeW0pls4u1Xk4wzR-5" parent="1" source="wv0iCeW0pls4u1Xk4wzR-1">
          <mxGeometry relative="1" as="geometry">
            <mxPoint x="130" y="220" as="sourcePoint" />
            <Array as="points">
              <mxPoint x="100" y="220" />
            </Array>
          </mxGeometry>
        </mxCell>
        <mxCell id="wv0iCeW0pls4u1Xk4wzR-7" value="" style="shape=umlLifeline;perimeter=lifelinePerimeter;whiteSpace=wrap;html=1;container=1;dropTarget=0;collapsible=0;recursiveResize=0;outlineConnect=0;portConstraint=eastwest;newEdgeStyle={&quot;edgeStyle&quot;:&quot;elbowEdgeStyle&quot;,&quot;elbow&quot;:&quot;vertical&quot;,&quot;curved&quot;:0,&quot;rounded&quot;:0};participant=umlEntity;" vertex="1" parent="1">
          <mxGeometry x="340" y="150" width="40" height="2280" as="geometry" />
        </mxCell>
        <mxCell id="wv0iCeW0pls4u1Xk4wzR-8" value="" style="html=1;points=[];perimeter=orthogonalPerimeter;outlineConnect=0;targetShapes=umlLifeline;portConstraint=eastwest;newEdgeStyle={&quot;edgeStyle&quot;:&quot;elbowEdgeStyle&quot;,&quot;elbow&quot;:&quot;vertical&quot;,&quot;curved&quot;:0,&quot;rounded&quot;:0};" vertex="1" parent="wv0iCeW0pls4u1Xk4wzR-7">
          <mxGeometry x="15" y="110" width="10" height="50" as="geometry" />
        </mxCell>
        <mxCell id="wv0iCeW0pls4u1Xk4wzR-33" value="" style="html=1;points=[];perimeter=orthogonalPerimeter;outlineConnect=0;targetShapes=umlLifeline;portConstraint=eastwest;newEdgeStyle={&quot;edgeStyle&quot;:&quot;elbowEdgeStyle&quot;,&quot;elbow&quot;:&quot;vertical&quot;,&quot;curved&quot;:0,&quot;rounded&quot;:0};" vertex="1" parent="wv0iCeW0pls4u1Xk4wzR-7">
          <mxGeometry x="15" y="440" width="10" height="100" as="geometry" />
        </mxCell>
        <mxCell id="wv0iCeW0pls4u1Xk4wzR-9" value="search_products()" style="html=1;verticalAlign=bottom;startArrow=oval;endArrow=block;startSize=8;edgeStyle=elbowEdgeStyle;elbow=vertical;curved=0;rounded=0;" edge="1" target="wv0iCeW0pls4u1Xk4wzR-8" parent="1" source="wv0iCeW0pls4u1Xk4wzR-3">
          <mxGeometry x="0.0654" relative="1" as="geometry">
            <mxPoint x="300" y="260" as="sourcePoint" />
            <Array as="points">
              <mxPoint x="320" y="260" />
            </Array>
            <mxPoint x="1" as="offset" />
          </mxGeometry>
        </mxCell>
        <mxCell id="wv0iCeW0pls4u1Xk4wzR-11" value="προϊοντα" style="text;html=1;align=center;verticalAlign=middle;resizable=0;points=[];autosize=1;strokeColor=none;fillColor=none;" vertex="1" parent="1">
          <mxGeometry x="325" y="120" width="70" height="30" as="geometry" />
        </mxCell>
        <mxCell id="wv0iCeW0pls4u1Xk4wzR-12" value="" style="shape=umlLifeline;perimeter=lifelinePerimeter;whiteSpace=wrap;html=1;container=1;dropTarget=0;collapsible=0;recursiveResize=0;outlineConnect=0;portConstraint=eastwest;newEdgeStyle={&quot;edgeStyle&quot;:&quot;elbowEdgeStyle&quot;,&quot;elbow&quot;:&quot;vertical&quot;,&quot;curved&quot;:0,&quot;rounded&quot;:0};participant=umlBoundary;" vertex="1" parent="1">
          <mxGeometry x="480" y="150" width="50" height="2240" as="geometry" />
        </mxCell>
        <mxCell id="wv0iCeW0pls4u1Xk4wzR-13" value="" style="html=1;points=[];perimeter=orthogonalPerimeter;outlineConnect=0;targetShapes=umlLifeline;portConstraint=eastwest;newEdgeStyle={&quot;edgeStyle&quot;:&quot;elbowEdgeStyle&quot;,&quot;elbow&quot;:&quot;vertical&quot;,&quot;curved&quot;:0,&quot;rounded&quot;:0};" vertex="1" parent="wv0iCeW0pls4u1Xk4wzR-12">
          <mxGeometry x="20" y="160" width="10" height="280" as="geometry" />
        </mxCell>
        <mxCell id="wv0iCeW0pls4u1Xk4wzR-14" value="display_products()" style="html=1;verticalAlign=bottom;startArrow=oval;endArrow=block;startSize=8;edgeStyle=elbowEdgeStyle;elbow=vertical;curved=0;rounded=0;" edge="1" target="wv0iCeW0pls4u1Xk4wzR-13" parent="1" source="wv0iCeW0pls4u1Xk4wzR-8">
          <mxGeometry relative="1" as="geometry">
            <mxPoint x="440" y="310" as="sourcePoint" />
            <Array as="points">
              <mxPoint x="430" y="310" />
            </Array>
          </mxGeometry>
        </mxCell>
        <mxCell id="wv0iCeW0pls4u1Xk4wzR-15" value="Προϊόντα συγκεκριμένης&lt;br style=&quot;border-color: var(--border-color); font-size: 14px;&quot;&gt;&lt;span style=&quot;border-color: var(--border-color); font-size: 14px;&quot;&gt;κατηγορίας&lt;/span&gt;" style="text;html=1;align=center;verticalAlign=middle;resizable=0;points=[];autosize=1;strokeColor=none;fillColor=none;" vertex="1" parent="1">
          <mxGeometry x="430" y="110" width="150" height="40" as="geometry" />
        </mxCell>
        <mxCell id="wv0iCeW0pls4u1Xk4wzR-16" value="select_product()" style="html=1;verticalAlign=bottom;startArrow=oval;startFill=1;endArrow=block;startSize=8;edgeStyle=elbowEdgeStyle;elbow=vertical;curved=0;rounded=0;" edge="1" parent="1" source="wv0iCeW0pls4u1Xk4wzR-1" target="wv0iCeW0pls4u1Xk4wzR-12">
          <mxGeometry width="60" relative="1" as="geometry">
            <mxPoint x="250" y="350" as="sourcePoint" />
            <mxPoint x="310" y="350" as="targetPoint" />
            <Array as="points">
              <mxPoint x="220" y="340" />
            </Array>
          </mxGeometry>
        </mxCell>
        <mxCell id="wv0iCeW0pls4u1Xk4wzR-17" value="" style="shape=umlLifeline;perimeter=lifelinePerimeter;whiteSpace=wrap;html=1;container=1;dropTarget=0;collapsible=0;recursiveResize=0;outlineConnect=0;portConstraint=eastwest;newEdgeStyle={&quot;edgeStyle&quot;:&quot;elbowEdgeStyle&quot;,&quot;elbow&quot;:&quot;vertical&quot;,&quot;curved&quot;:0,&quot;rounded&quot;:0};participant=umlBoundary;" vertex="1" parent="1">
          <mxGeometry x="640" y="150" width="50" height="2190" as="geometry" />
        </mxCell>
        <mxCell id="wv0iCeW0pls4u1Xk4wzR-19" value="" style="html=1;points=[];perimeter=orthogonalPerimeter;outlineConnect=0;targetShapes=umlLifeline;portConstraint=eastwest;newEdgeStyle={&quot;edgeStyle&quot;:&quot;elbowEdgeStyle&quot;,&quot;elbow&quot;:&quot;vertical&quot;,&quot;curved&quot;:0,&quot;rounded&quot;:0};" vertex="1" parent="wv0iCeW0pls4u1Xk4wzR-17">
          <mxGeometry x="20" y="220" width="10" height="190" as="geometry" />
        </mxCell>
        <mxCell id="wv0iCeW0pls4u1Xk4wzR-18" value="Προσθήκη στα&lt;br&gt;&amp;nbsp;Αγαπημένα;" style="text;html=1;align=center;verticalAlign=middle;resizable=0;points=[];autosize=1;strokeColor=none;fillColor=none;" vertex="1" parent="1">
          <mxGeometry x="615" y="110" width="100" height="40" as="geometry" />
        </mxCell>
        <mxCell id="wv0iCeW0pls4u1Xk4wzR-20" value="ask_favorite()" style="html=1;verticalAlign=bottom;startArrow=oval;endArrow=block;startSize=8;edgeStyle=elbowEdgeStyle;elbow=vertical;curved=0;rounded=0;" edge="1" target="wv0iCeW0pls4u1Xk4wzR-19" parent="1" source="wv0iCeW0pls4u1Xk4wzR-13">
          <mxGeometry relative="1" as="geometry">
            <mxPoint x="600" y="360" as="sourcePoint" />
            <Array as="points">
              <mxPoint x="540" y="370" />
              <mxPoint x="630" y="360" />
            </Array>
            <mxPoint as="offset" />
          </mxGeometry>
        </mxCell>
        <mxCell id="wv0iCeW0pls4u1Xk4wzR-21" value="answer_favorite()" style="html=1;verticalAlign=bottom;startArrow=oval;startFill=1;endArrow=block;startSize=8;edgeStyle=elbowEdgeStyle;elbow=vertical;curved=0;rounded=0;" edge="1" parent="1" source="wv0iCeW0pls4u1Xk4wzR-1" target="wv0iCeW0pls4u1Xk4wzR-19">
          <mxGeometry x="-0.1604" width="60" relative="1" as="geometry">
            <mxPoint x="380" y="400" as="sourcePoint" />
            <mxPoint x="440" y="400" as="targetPoint" />
            <Array as="points">
              <mxPoint x="450" y="420" />
              <mxPoint x="430" y="400" />
            </Array>
            <mxPoint x="1" as="offset" />
          </mxGeometry>
        </mxCell>
        <mxCell id="wv0iCeW0pls4u1Xk4wzR-22" value="alternative" style="shape=umlFrame;whiteSpace=wrap;html=1;pointerEvents=0;fillColor=#f8cecc;strokeColor=#b85450;" vertex="1" parent="1">
          <mxGeometry x="-50" y="450" width="890" height="170" as="geometry" />
        </mxCell>
        <mxCell id="wv0iCeW0pls4u1Xk4wzR-24" value="" style="endArrow=none;html=1;rounded=0;exitX=0.001;exitY=0.524;exitDx=0;exitDy=0;exitPerimeter=0;entryX=1.003;entryY=0.498;entryDx=0;entryDy=0;entryPerimeter=0;fillColor=#f8cecc;strokeColor=#b85450;" edge="1" parent="1" source="wv0iCeW0pls4u1Xk4wzR-22" target="wv0iCeW0pls4u1Xk4wzR-22">
          <mxGeometry width="50" height="50" relative="1" as="geometry">
            <mxPoint x="590" y="615" as="sourcePoint" />
            <mxPoint x="750" y="514" as="targetPoint" />
            <Array as="points" />
          </mxGeometry>
        </mxCell>
        <mxCell id="wv0iCeW0pls4u1Xk4wzR-25" value="yes favorite" style="text;html=1;align=center;verticalAlign=middle;resizable=0;points=[];autosize=1;strokeColor=none;fillColor=none;" vertex="1" parent="1">
          <mxGeometry x="-50" y="488" width="80" height="30" as="geometry" />
        </mxCell>
        <mxCell id="wv0iCeW0pls4u1Xk4wzR-28" value="" style="shape=umlLifeline;perimeter=lifelinePerimeter;whiteSpace=wrap;html=1;container=1;dropTarget=0;collapsible=0;recursiveResize=0;outlineConnect=0;portConstraint=eastwest;newEdgeStyle={&quot;edgeStyle&quot;:&quot;elbowEdgeStyle&quot;,&quot;elbow&quot;:&quot;vertical&quot;,&quot;curved&quot;:0,&quot;rounded&quot;:0};participant=umlEntity;" vertex="1" parent="1">
          <mxGeometry x="780" y="150" width="40" height="2190" as="geometry" />
        </mxCell>
        <mxCell id="wv0iCeW0pls4u1Xk4wzR-29" value="" style="html=1;points=[];perimeter=orthogonalPerimeter;outlineConnect=0;targetShapes=umlLifeline;portConstraint=eastwest;newEdgeStyle={&quot;edgeStyle&quot;:&quot;elbowEdgeStyle&quot;,&quot;elbow&quot;:&quot;vertical&quot;,&quot;curved&quot;:0,&quot;rounded&quot;:0};" vertex="1" parent="wv0iCeW0pls4u1Xk4wzR-28">
          <mxGeometry x="15" y="325" width="10" height="45" as="geometry" />
        </mxCell>
        <mxCell id="wv0iCeW0pls4u1Xk4wzR-30" value="addProduct_favorite()" style="html=1;verticalAlign=bottom;startArrow=oval;endArrow=block;startSize=8;edgeStyle=elbowEdgeStyle;elbow=vertical;curved=0;rounded=0;" edge="1" target="wv0iCeW0pls4u1Xk4wzR-29" parent="1" source="wv0iCeW0pls4u1Xk4wzR-19">
          <mxGeometry relative="1" as="geometry">
            <mxPoint x="723" y="470" as="sourcePoint" />
            <Array as="points">
              <mxPoint x="760" y="480" />
              <mxPoint x="710" y="460" />
            </Array>
          </mxGeometry>
        </mxCell>
        <mxCell id="wv0iCeW0pls4u1Xk4wzR-31" value="Αγαπημένα &lt;br&gt;Προϊόντα" style="text;html=1;align=center;verticalAlign=middle;resizable=0;points=[];autosize=1;strokeColor=none;fillColor=none;" vertex="1" parent="1">
          <mxGeometry x="760" y="115" width="80" height="40" as="geometry" />
        </mxCell>
        <mxCell id="wv0iCeW0pls4u1Xk4wzR-32" value="not_favorite()()" style="html=1;verticalAlign=bottom;endArrow=open;dashed=1;endSize=8;edgeStyle=elbowEdgeStyle;elbow=vertical;curved=0;rounded=0;" edge="1" parent="1" source="wv0iCeW0pls4u1Xk4wzR-19" target="wv0iCeW0pls4u1Xk4wzR-12">
          <mxGeometry x="-0.2283" relative="1" as="geometry">
            <mxPoint x="610" y="560" as="sourcePoint" />
            <mxPoint x="510" y="560" as="targetPoint" />
            <Array as="points">
              <mxPoint x="630" y="560" />
              <mxPoint x="540" y="560" />
            </Array>
            <mxPoint as="offset" />
          </mxGeometry>
        </mxCell>
        <mxCell id="wv0iCeW0pls4u1Xk4wzR-34" value="check_stock()" style="html=1;verticalAlign=bottom;endArrow=open;dashed=1;endSize=8;edgeStyle=elbowEdgeStyle;elbow=vertical;curved=0;rounded=0;" edge="1" parent="1" target="wv0iCeW0pls4u1Xk4wzR-33">
          <mxGeometry x="0.0074" relative="1" as="geometry">
            <mxPoint x="505" y="590" as="sourcePoint" />
            <mxPoint x="400" y="580" as="targetPoint" />
            <Array as="points">
              <mxPoint x="460" y="590" />
              <mxPoint x="410" y="570" />
            </Array>
            <mxPoint as="offset" />
          </mxGeometry>
        </mxCell>
        <mxCell id="wv0iCeW0pls4u1Xk4wzR-35" value="alternative" style="shape=umlFrame;whiteSpace=wrap;html=1;pointerEvents=0;fillColor=#f8cecc;strokeColor=#b85450;" vertex="1" parent="1">
          <mxGeometry x="-50" y="670" width="1400" height="460" as="geometry" />
        </mxCell>
        <mxCell id="wv0iCeW0pls4u1Xk4wzR-36" value="" style="endArrow=none;html=1;rounded=0;entryX=1.003;entryY=0.674;entryDx=0;entryDy=0;entryPerimeter=0;fillColor=#f8cecc;strokeColor=#b85450;exitX=-0.002;exitY=0.668;exitDx=0;exitDy=0;exitPerimeter=0;" edge="1" parent="1" source="wv0iCeW0pls4u1Xk4wzR-35" target="wv0iCeW0pls4u1Xk4wzR-35">
          <mxGeometry width="50" height="50" relative="1" as="geometry">
            <mxPoint x="-60" y="983" as="sourcePoint" />
            <mxPoint x="170" y="710" as="targetPoint" />
          </mxGeometry>
        </mxCell>
        <mxCell id="wv0iCeW0pls4u1Xk4wzR-37" value="stock=0" style="text;html=1;align=center;verticalAlign=middle;resizable=0;points=[];autosize=1;strokeColor=none;fillColor=none;" vertex="1" parent="1">
          <mxGeometry x="-55" y="698" width="70" height="30" as="geometry" />
        </mxCell>
        <mxCell id="wv0iCeW0pls4u1Xk4wzR-38" value="" style="shape=umlLifeline;perimeter=lifelinePerimeter;whiteSpace=wrap;html=1;container=1;dropTarget=0;collapsible=0;recursiveResize=0;outlineConnect=0;portConstraint=eastwest;newEdgeStyle={&quot;edgeStyle&quot;:&quot;elbowEdgeStyle&quot;,&quot;elbow&quot;:&quot;vertical&quot;,&quot;curved&quot;:0,&quot;rounded&quot;:0};participant=umlEntity;" vertex="1" parent="1">
          <mxGeometry x="930" y="150" width="40" height="2280" as="geometry" />
        </mxCell>
        <mxCell id="wv0iCeW0pls4u1Xk4wzR-41" value="" style="html=1;points=[];perimeter=orthogonalPerimeter;outlineConnect=0;targetShapes=umlLifeline;portConstraint=eastwest;newEdgeStyle={&quot;edgeStyle&quot;:&quot;elbowEdgeStyle&quot;,&quot;elbow&quot;:&quot;vertical&quot;,&quot;curved&quot;:0,&quot;rounded&quot;:0};" vertex="1" parent="wv0iCeW0pls4u1Xk4wzR-38">
          <mxGeometry x="15" y="530" width="10" height="80" as="geometry" />
        </mxCell>
        <mxCell id="wv0iCeW0pls4u1Xk4wzR-94" value="" style="html=1;points=[];perimeter=orthogonalPerimeter;outlineConnect=0;targetShapes=umlLifeline;portConstraint=eastwest;newEdgeStyle={&quot;edgeStyle&quot;:&quot;elbowEdgeStyle&quot;,&quot;elbow&quot;:&quot;vertical&quot;,&quot;curved&quot;:0,&quot;rounded&quot;:0};" vertex="1" parent="wv0iCeW0pls4u1Xk4wzR-38">
          <mxGeometry x="15" y="1330" width="10" height="460" as="geometry" />
        </mxCell>
        <mxCell id="wv0iCeW0pls4u1Xk4wzR-39" value="premium" style="text;html=1;align=center;verticalAlign=middle;resizable=0;points=[];autosize=1;strokeColor=none;fillColor=none;" vertex="1" parent="1">
          <mxGeometry x="915" y="115" width="70" height="30" as="geometry" />
        </mxCell>
        <mxCell id="wv0iCeW0pls4u1Xk4wzR-42" value="check_premium()" style="html=1;verticalAlign=bottom;startArrow=oval;endArrow=block;startSize=8;edgeStyle=elbowEdgeStyle;elbow=vertical;curved=0;rounded=0;" edge="1" target="wv0iCeW0pls4u1Xk4wzR-41" parent="1">
          <mxGeometry x="-0.1111" relative="1" as="geometry">
            <mxPoint x="360" y="690" as="sourcePoint" />
            <mxPoint as="offset" />
          </mxGeometry>
        </mxCell>
        <mxCell id="wv0iCeW0pls4u1Xk4wzR-43" value="alternative" style="shape=umlFrame;whiteSpace=wrap;html=1;pointerEvents=0;fillColor=#f8cecc;strokeColor=#b85450;" vertex="1" parent="1">
          <mxGeometry x="570" y="720" width="660" height="250" as="geometry" />
        </mxCell>
        <mxCell id="wv0iCeW0pls4u1Xk4wzR-44" value="" style="endArrow=none;html=1;rounded=0;fillColor=#f8cecc;strokeColor=#b85450;entryX=1.002;entryY=0.598;entryDx=0;entryDy=0;entryPerimeter=0;" edge="1" parent="1" target="wv0iCeW0pls4u1Xk4wzR-43">
          <mxGeometry width="50" height="50" relative="1" as="geometry">
            <mxPoint x="570" y="870" as="sourcePoint" />
            <mxPoint x="1060" y="780" as="targetPoint" />
          </mxGeometry>
        </mxCell>
        <mxCell id="wv0iCeW0pls4u1Xk4wzR-45" value="premium=yes" style="text;html=1;align=center;verticalAlign=middle;resizable=0;points=[];autosize=1;strokeColor=none;fillColor=none;" vertex="1" parent="1">
          <mxGeometry x="560" y="750" width="100" height="30" as="geometry" />
        </mxCell>
        <mxCell id="wv0iCeW0pls4u1Xk4wzR-46" value="premium=no" style="text;html=1;align=center;verticalAlign=middle;resizable=0;points=[];autosize=1;strokeColor=none;fillColor=none;" vertex="1" parent="1">
          <mxGeometry x="565" y="880" width="90" height="30" as="geometry" />
        </mxCell>
        <mxCell id="wv0iCeW0pls4u1Xk4wzR-47" value="" style="shape=umlLifeline;perimeter=lifelinePerimeter;whiteSpace=wrap;html=1;container=1;dropTarget=0;collapsible=0;recursiveResize=0;outlineConnect=0;portConstraint=eastwest;newEdgeStyle={&quot;edgeStyle&quot;:&quot;elbowEdgeStyle&quot;,&quot;elbow&quot;:&quot;vertical&quot;,&quot;curved&quot;:0,&quot;rounded&quot;:0};participant=umlBoundary;" vertex="1" parent="1">
          <mxGeometry x="1050" y="150" width="50" height="2040" as="geometry" />
        </mxCell>
        <mxCell id="wv0iCeW0pls4u1Xk4wzR-48" value="" style="html=1;points=[];perimeter=orthogonalPerimeter;outlineConnect=0;targetShapes=umlLifeline;portConstraint=eastwest;newEdgeStyle={&quot;edgeStyle&quot;:&quot;elbowEdgeStyle&quot;,&quot;elbow&quot;:&quot;vertical&quot;,&quot;curved&quot;:0,&quot;rounded&quot;:0};" vertex="1" parent="wv0iCeW0pls4u1Xk4wzR-47">
          <mxGeometry x="20" y="600" width="10" height="50" as="geometry" />
        </mxCell>
        <mxCell id="wv0iCeW0pls4u1Xk4wzR-49" value="ask_for_interest()" style="html=1;verticalAlign=bottom;startArrow=oval;endArrow=block;startSize=8;edgeStyle=elbowEdgeStyle;elbow=vertical;curved=0;rounded=0;" edge="1" target="wv0iCeW0pls4u1Xk4wzR-48" parent="1" source="wv0iCeW0pls4u1Xk4wzR-41">
          <mxGeometry x="-0.0435" relative="1" as="geometry">
            <mxPoint x="1010" y="750" as="sourcePoint" />
            <mxPoint as="offset" />
          </mxGeometry>
        </mxCell>
        <mxCell id="wv0iCeW0pls4u1Xk4wzR-50" value="Οθόνη για επιλογή &lt;br&gt;μεταξύ ενφιαφέροντος &lt;br&gt;και εναλλακτικών" style="text;html=1;align=center;verticalAlign=middle;resizable=0;points=[];autosize=1;strokeColor=none;fillColor=none;" vertex="1" parent="1">
          <mxGeometry x="1005" y="100" width="140" height="60" as="geometry" />
        </mxCell>
        <mxCell id="wv0iCeW0pls4u1Xk4wzR-51" value="alternative" style="shape=umlFrame;whiteSpace=wrap;html=1;pointerEvents=0;fillColor=#f8cecc;strokeColor=#b85450;" vertex="1" parent="1">
          <mxGeometry x="970" y="770" width="250" height="80" as="geometry" />
        </mxCell>
        <mxCell id="wv0iCeW0pls4u1Xk4wzR-52" value="interest yes" style="text;html=1;align=center;verticalAlign=middle;resizable=0;points=[];autosize=1;strokeColor=none;fillColor=none;" vertex="1" parent="1">
          <mxGeometry x="970" y="795" width="80" height="30" as="geometry" />
        </mxCell>
        <mxCell id="wv0iCeW0pls4u1Xk4wzR-53" value="ενδιαφέροντα&lt;br&gt;&amp;nbsp;out of stock" style="text;html=1;align=center;verticalAlign=middle;resizable=0;points=[];autosize=1;strokeColor=none;fillColor=none;" vertex="1" parent="1">
          <mxGeometry x="1140" y="115" width="100" height="40" as="geometry" />
        </mxCell>
        <mxCell id="wv0iCeW0pls4u1Xk4wzR-54" value="" style="endArrow=none;html=1;rounded=0;entryX=1.007;entryY=0.635;entryDx=0;entryDy=0;entryPerimeter=0;exitX=-0.01;exitY=0.655;exitDx=0;exitDy=0;exitPerimeter=0;fillColor=#f8cecc;strokeColor=#b85450;" edge="1" parent="1" source="wv0iCeW0pls4u1Xk4wzR-51" target="wv0iCeW0pls4u1Xk4wzR-51">
          <mxGeometry width="50" height="50" relative="1" as="geometry">
            <mxPoint x="1095" y="830" as="sourcePoint" />
            <mxPoint x="1145" y="780" as="targetPoint" />
          </mxGeometry>
        </mxCell>
        <mxCell id="wv0iCeW0pls4u1Xk4wzR-55" value="" style="shape=umlLifeline;perimeter=lifelinePerimeter;whiteSpace=wrap;html=1;container=1;dropTarget=0;collapsible=0;recursiveResize=0;outlineConnect=0;portConstraint=eastwest;newEdgeStyle={&quot;edgeStyle&quot;:&quot;elbowEdgeStyle&quot;,&quot;elbow&quot;:&quot;vertical&quot;,&quot;curved&quot;:0,&quot;rounded&quot;:0};participant=umlEntity;" vertex="1" parent="1">
          <mxGeometry x="1170" y="150" width="40" height="2040" as="geometry" />
        </mxCell>
        <mxCell id="wv0iCeW0pls4u1Xk4wzR-56" value="" style="html=1;points=[];perimeter=orthogonalPerimeter;outlineConnect=0;targetShapes=umlLifeline;portConstraint=eastwest;newEdgeStyle={&quot;edgeStyle&quot;:&quot;elbowEdgeStyle&quot;,&quot;elbow&quot;:&quot;vertical&quot;,&quot;curved&quot;:0,&quot;rounded&quot;:0};" vertex="1" parent="wv0iCeW0pls4u1Xk4wzR-55">
          <mxGeometry x="15" y="650" width="10" height="20" as="geometry" />
        </mxCell>
        <mxCell id="wv0iCeW0pls4u1Xk4wzR-57" value="add_interest()" style="html=1;verticalAlign=bottom;startArrow=oval;endArrow=block;startSize=8;edgeStyle=elbowEdgeStyle;elbow=vertical;curved=0;rounded=0;" edge="1" target="wv0iCeW0pls4u1Xk4wzR-56" parent="1" source="wv0iCeW0pls4u1Xk4wzR-47">
          <mxGeometry relative="1" as="geometry">
            <mxPoint x="1130" y="780" as="sourcePoint" />
            <Array as="points">
              <mxPoint x="1120" y="800" />
            </Array>
          </mxGeometry>
        </mxCell>
        <mxCell id="wv0iCeW0pls4u1Xk4wzR-59" value="no favorite" style="text;html=1;align=center;verticalAlign=middle;resizable=0;points=[];autosize=1;strokeColor=none;fillColor=none;" vertex="1" parent="1">
          <mxGeometry x="-60" y="540" width="80" height="30" as="geometry" />
        </mxCell>
        <mxCell id="wv0iCeW0pls4u1Xk4wzR-60" value="" style="html=1;points=[];perimeter=orthogonalPerimeter;outlineConnect=0;targetShapes=umlLifeline;portConstraint=eastwest;newEdgeStyle={&quot;edgeStyle&quot;:&quot;elbowEdgeStyle&quot;,&quot;elbow&quot;:&quot;vertical&quot;,&quot;curved&quot;:0,&quot;rounded&quot;:0};" vertex="1" parent="1">
          <mxGeometry x="355" y="980" width="10" height="50" as="geometry" />
        </mxCell>
        <mxCell id="wv0iCeW0pls4u1Xk4wzR-61" value="" style="shape=umlLifeline;perimeter=lifelinePerimeter;whiteSpace=wrap;html=1;container=1;dropTarget=0;collapsible=0;recursiveResize=0;outlineConnect=0;portConstraint=eastwest;newEdgeStyle={&quot;edgeStyle&quot;:&quot;elbowEdgeStyle&quot;,&quot;elbow&quot;:&quot;vertical&quot;,&quot;curved&quot;:0,&quot;rounded&quot;:0};participant=umlEntity;" vertex="1" parent="1">
          <mxGeometry x="1280" y="150" width="40" height="2110" as="geometry" />
        </mxCell>
        <mxCell id="wv0iCeW0pls4u1Xk4wzR-63" value="" style="html=1;points=[];perimeter=orthogonalPerimeter;outlineConnect=0;targetShapes=umlLifeline;portConstraint=eastwest;newEdgeStyle={&quot;edgeStyle&quot;:&quot;elbowEdgeStyle&quot;,&quot;elbow&quot;:&quot;vertical&quot;,&quot;curved&quot;:0,&quot;rounded&quot;:0};" vertex="1" parent="wv0iCeW0pls4u1Xk4wzR-61">
          <mxGeometry x="15" y="870" width="10" height="130" as="geometry" />
        </mxCell>
        <mxCell id="wv0iCeW0pls4u1Xk4wzR-62" value="Φαρμακεία" style="text;html=1;align=center;verticalAlign=middle;resizable=0;points=[];autosize=1;strokeColor=none;fillColor=none;" vertex="1" parent="1">
          <mxGeometry x="1260" y="120" width="80" height="30" as="geometry" />
        </mxCell>
        <mxCell id="wv0iCeW0pls4u1Xk4wzR-64" value="search_pharmacies()" style="html=1;verticalAlign=bottom;startArrow=oval;endArrow=block;startSize=8;edgeStyle=elbowEdgeStyle;elbow=vertical;curved=0;rounded=0;" edge="1" target="wv0iCeW0pls4u1Xk4wzR-63" parent="1" source="wv0iCeW0pls4u1Xk4wzR-60">
          <mxGeometry relative="1" as="geometry">
            <mxPoint x="1240" y="1010" as="sourcePoint" />
          </mxGeometry>
        </mxCell>
        <mxCell id="wv0iCeW0pls4u1Xk4wzR-65" value="" style="shape=umlLifeline;perimeter=lifelinePerimeter;whiteSpace=wrap;html=1;container=1;dropTarget=0;collapsible=0;recursiveResize=0;outlineConnect=0;portConstraint=eastwest;newEdgeStyle={&quot;edgeStyle&quot;:&quot;elbowEdgeStyle&quot;,&quot;elbow&quot;:&quot;vertical&quot;,&quot;curved&quot;:0,&quot;rounded&quot;:0};participant=umlBoundary;" vertex="1" parent="1">
          <mxGeometry x="1400" y="150" width="50" height="2160" as="geometry" />
        </mxCell>
        <mxCell id="wv0iCeW0pls4u1Xk4wzR-67" value="" style="html=1;points=[];perimeter=orthogonalPerimeter;outlineConnect=0;targetShapes=umlLifeline;portConstraint=eastwest;newEdgeStyle={&quot;edgeStyle&quot;:&quot;elbowEdgeStyle&quot;,&quot;elbow&quot;:&quot;vertical&quot;,&quot;curved&quot;:0,&quot;rounded&quot;:0};" vertex="1" parent="wv0iCeW0pls4u1Xk4wzR-65">
          <mxGeometry x="20" y="1000" width="10" height="80" as="geometry" />
        </mxCell>
        <mxCell id="wv0iCeW0pls4u1Xk4wzR-66" value="Φαρμακεία που &lt;br&gt;διαθέτουν&amp;nbsp;προϊόν" style="text;html=1;align=center;verticalAlign=middle;resizable=0;points=[];autosize=1;strokeColor=none;fillColor=none;" vertex="1" parent="1">
          <mxGeometry x="1360" y="103" width="120" height="40" as="geometry" />
        </mxCell>
        <mxCell id="wv0iCeW0pls4u1Xk4wzR-68" value="display_pharmacies()" style="html=1;verticalAlign=bottom;startArrow=oval;endArrow=block;startSize=8;edgeStyle=elbowEdgeStyle;elbow=vertical;curved=0;rounded=0;" edge="1" target="wv0iCeW0pls4u1Xk4wzR-67" parent="1" source="wv0iCeW0pls4u1Xk4wzR-61">
          <mxGeometry x="0.1701" relative="1" as="geometry">
            <mxPoint x="1360" y="1150" as="sourcePoint" />
            <Array as="points">
              <mxPoint x="1350" y="1150" />
            </Array>
            <mxPoint x="1" as="offset" />
          </mxGeometry>
        </mxCell>
        <mxCell id="wv0iCeW0pls4u1Xk4wzR-69" value="select_pharmacy()" style="html=1;verticalAlign=bottom;startArrow=oval;startFill=1;endArrow=block;startSize=8;edgeStyle=elbowEdgeStyle;elbow=vertical;curved=0;rounded=0;" edge="1" parent="1" source="wv0iCeW0pls4u1Xk4wzR-1" target="wv0iCeW0pls4u1Xk4wzR-67">
          <mxGeometry width="60" relative="1" as="geometry">
            <mxPoint x="100" y="1190" as="sourcePoint" />
            <mxPoint x="160" y="1190" as="targetPoint" />
          </mxGeometry>
        </mxCell>
        <mxCell id="wv0iCeW0pls4u1Xk4wzR-72" value="" style="shape=umlLifeline;perimeter=lifelinePerimeter;whiteSpace=wrap;html=1;container=1;dropTarget=0;collapsible=0;recursiveResize=0;outlineConnect=0;portConstraint=eastwest;newEdgeStyle={&quot;edgeStyle&quot;:&quot;elbowEdgeStyle&quot;,&quot;elbow&quot;:&quot;vertical&quot;,&quot;curved&quot;:0,&quot;rounded&quot;:0};participant=umlEntity;" vertex="1" parent="1">
          <mxGeometry x="1540" y="150" width="40" height="2210" as="geometry" />
        </mxCell>
        <mxCell id="wv0iCeW0pls4u1Xk4wzR-73" value="" style="html=1;points=[];perimeter=orthogonalPerimeter;outlineConnect=0;targetShapes=umlLifeline;portConstraint=eastwest;newEdgeStyle={&quot;edgeStyle&quot;:&quot;elbowEdgeStyle&quot;,&quot;elbow&quot;:&quot;vertical&quot;,&quot;curved&quot;:0,&quot;rounded&quot;:0};" vertex="1" parent="wv0iCeW0pls4u1Xk4wzR-72">
          <mxGeometry x="15" y="1080" width="10" height="80" as="geometry" />
        </mxCell>
        <mxCell id="wv0iCeW0pls4u1Xk4wzR-74" value="add_to_basket" style="html=1;verticalAlign=bottom;startArrow=oval;endArrow=block;startSize=8;edgeStyle=elbowEdgeStyle;elbow=vertical;curved=0;rounded=0;" edge="1" target="wv0iCeW0pls4u1Xk4wzR-73" parent="1" source="wv0iCeW0pls4u1Xk4wzR-65">
          <mxGeometry relative="1" as="geometry">
            <mxPoint x="1470" y="1170" as="sourcePoint" />
            <Array as="points">
              <mxPoint x="1480" y="1230" />
            </Array>
          </mxGeometry>
        </mxCell>
        <mxCell id="wv0iCeW0pls4u1Xk4wzR-75" value="καλάθι" style="text;html=1;align=center;verticalAlign=middle;resizable=0;points=[];autosize=1;strokeColor=none;fillColor=none;" vertex="1" parent="1">
          <mxGeometry x="1530" y="120" width="60" height="30" as="geometry" />
        </mxCell>
        <mxCell id="wv0iCeW0pls4u1Xk4wzR-76" value="" style="shape=umlLifeline;perimeter=lifelinePerimeter;whiteSpace=wrap;html=1;container=1;dropTarget=0;collapsible=0;recursiveResize=0;outlineConnect=0;portConstraint=eastwest;newEdgeStyle={&quot;edgeStyle&quot;:&quot;elbowEdgeStyle&quot;,&quot;elbow&quot;:&quot;vertical&quot;,&quot;curved&quot;:0,&quot;rounded&quot;:0};participant=umlBoundary;" vertex="1" parent="1">
          <mxGeometry x="1660" y="150" width="50" height="2210" as="geometry" />
        </mxCell>
        <mxCell id="wv0iCeW0pls4u1Xk4wzR-77" value="" style="html=1;points=[];perimeter=orthogonalPerimeter;outlineConnect=0;targetShapes=umlLifeline;portConstraint=eastwest;newEdgeStyle={&quot;edgeStyle&quot;:&quot;elbowEdgeStyle&quot;,&quot;elbow&quot;:&quot;vertical&quot;,&quot;curved&quot;:0,&quot;rounded&quot;:0};" vertex="1" parent="wv0iCeW0pls4u1Xk4wzR-76">
          <mxGeometry x="20" y="1160" width="10" height="80" as="geometry" />
        </mxCell>
        <mxCell id="wv0iCeW0pls4u1Xk4wzR-78" value="display_add_more()" style="html=1;verticalAlign=bottom;startArrow=oval;endArrow=block;startSize=8;edgeStyle=elbowEdgeStyle;elbow=vertical;curved=0;rounded=0;" edge="1" target="wv0iCeW0pls4u1Xk4wzR-77" parent="1" source="wv0iCeW0pls4u1Xk4wzR-72">
          <mxGeometry relative="1" as="geometry">
            <mxPoint x="1620" y="1310" as="sourcePoint" />
            <Array as="points">
              <mxPoint x="1600" y="1310" />
            </Array>
          </mxGeometry>
        </mxCell>
        <mxCell id="wv0iCeW0pls4u1Xk4wzR-79" value="alternative" style="shape=umlFrame;whiteSpace=wrap;html=1;pointerEvents=0;fillColor=#f8cecc;strokeColor=#b85450;" vertex="1" parent="1">
          <mxGeometry x="-50" y="1360" width="1800" height="230" as="geometry" />
        </mxCell>
        <mxCell id="wv0iCeW0pls4u1Xk4wzR-80" value="answer_add_more()" style="html=1;verticalAlign=bottom;startArrow=oval;startFill=1;endArrow=block;startSize=8;edgeStyle=elbowEdgeStyle;elbow=vertical;curved=0;rounded=0;" edge="1" parent="1" target="wv0iCeW0pls4u1Xk4wzR-77">
          <mxGeometry width="60" relative="1" as="geometry">
            <mxPoint x="40" y="1340" as="sourcePoint" />
            <mxPoint x="100" y="1340" as="targetPoint" />
          </mxGeometry>
        </mxCell>
        <mxCell id="wv0iCeW0pls4u1Xk4wzR-81" value="add more" style="text;html=1;align=center;verticalAlign=middle;resizable=0;points=[];autosize=1;strokeColor=none;fillColor=none;" vertex="1" parent="1">
          <mxGeometry x="-50" y="1390" width="70" height="30" as="geometry" />
        </mxCell>
        <mxCell id="wv0iCeW0pls4u1Xk4wzR-82" value="" style="endArrow=none;html=1;rounded=0;entryX=1.001;entryY=0.282;entryDx=0;entryDy=0;entryPerimeter=0;fillColor=#f8cecc;strokeColor=#b85450;" edge="1" parent="1" target="wv0iCeW0pls4u1Xk4wzR-79">
          <mxGeometry width="50" height="50" relative="1" as="geometry">
            <mxPoint x="-60" y="1430" as="sourcePoint" />
            <mxPoint x="450" y="1400" as="targetPoint" />
          </mxGeometry>
        </mxCell>
        <mxCell id="wv0iCeW0pls4u1Xk4wzR-83" value="add_more_products()" style="html=1;verticalAlign=bottom;endArrow=open;dashed=1;endSize=8;edgeStyle=elbowEdgeStyle;elbow=vertical;curved=0;rounded=0;" edge="1" parent="1" source="wv0iCeW0pls4u1Xk4wzR-77" target="wv0iCeW0pls4u1Xk4wzR-3">
          <mxGeometry x="0.0905" relative="1" as="geometry">
            <mxPoint x="1640" y="1390" as="sourcePoint" />
            <mxPoint x="1560" y="1390" as="targetPoint" />
            <Array as="points">
              <mxPoint x="270" y="1390" />
            </Array>
            <mxPoint as="offset" />
          </mxGeometry>
        </mxCell>
        <mxCell id="wv0iCeW0pls4u1Xk4wzR-84" value="" style="html=1;points=[];perimeter=orthogonalPerimeter;outlineConnect=0;targetShapes=umlLifeline;portConstraint=eastwest;newEdgeStyle={&quot;edgeStyle&quot;:&quot;elbowEdgeStyle&quot;,&quot;elbow&quot;:&quot;vertical&quot;,&quot;curved&quot;:0,&quot;rounded&quot;:0};" vertex="1" parent="1">
          <mxGeometry x="190" y="1390" width="10" height="30" as="geometry" />
        </mxCell>
        <mxCell id="wv0iCeW0pls4u1Xk4wzR-86" value="finish order" style="text;html=1;align=center;verticalAlign=middle;resizable=0;points=[];autosize=1;strokeColor=none;fillColor=none;" vertex="1" parent="1">
          <mxGeometry x="-50" y="1438" width="80" height="30" as="geometry" />
        </mxCell>
        <mxCell id="wv0iCeW0pls4u1Xk4wzR-87" value="&lt;font style=&quot;font-size: 11px;&quot;&gt;Καλάθι παραγγελιών με επιλογές&lt;br style=&quot;border-color: var(--border-color);&quot;&gt;&lt;span style=&quot;border-color: var(--border-color);&quot;&gt;Προσθήκη άλλου προϊόντος ή&lt;/span&gt;&lt;br style=&quot;border-color: var(--border-color);&quot;&gt;&lt;span style=&quot;border-color: var(--border-color);&quot;&gt;ολοκλήρωση παραγγελίας&lt;/span&gt;&lt;/font&gt;" style="text;html=1;align=center;verticalAlign=middle;resizable=0;points=[];autosize=1;strokeColor=none;fillColor=none;" vertex="1" parent="1">
          <mxGeometry x="1600" y="90" width="180" height="60" as="geometry" />
        </mxCell>
        <mxCell id="wv0iCeW0pls4u1Xk4wzR-91" value="" style="html=1;points=[];perimeter=orthogonalPerimeter;outlineConnect=0;targetShapes=umlLifeline;portConstraint=eastwest;newEdgeStyle={&quot;edgeStyle&quot;:&quot;elbowEdgeStyle&quot;,&quot;elbow&quot;:&quot;vertical&quot;,&quot;curved&quot;:0,&quot;rounded&quot;:0};" vertex="1" parent="1">
          <mxGeometry x="1680" y="1430" width="10" height="20" as="geometry" />
        </mxCell>
        <mxCell id="wv0iCeW0pls4u1Xk4wzR-92" value="check_sum()" style="html=1;verticalAlign=bottom;endArrow=open;dashed=1;endSize=8;edgeStyle=elbowEdgeStyle;elbow=vertical;curved=0;rounded=0;" edge="1" parent="1" source="wv0iCeW0pls4u1Xk4wzR-91" target="wv0iCeW0pls4u1Xk4wzR-72">
          <mxGeometry relative="1" as="geometry">
            <mxPoint x="1670" y="1450" as="sourcePoint" />
            <mxPoint x="1590" y="1450" as="targetPoint" />
            <Array as="points">
              <mxPoint x="1600" y="1450" />
            </Array>
          </mxGeometry>
        </mxCell>
        <mxCell id="wv0iCeW0pls4u1Xk4wzR-93" value="" style="html=1;points=[];perimeter=orthogonalPerimeter;outlineConnect=0;targetShapes=umlLifeline;portConstraint=eastwest;newEdgeStyle={&quot;edgeStyle&quot;:&quot;elbowEdgeStyle&quot;,&quot;elbow&quot;:&quot;vertical&quot;,&quot;curved&quot;:0,&quot;rounded&quot;:0};" vertex="1" parent="1">
          <mxGeometry x="1555" y="1450" width="10" height="750" as="geometry" />
        </mxCell>
        <mxCell id="wv0iCeW0pls4u1Xk4wzR-96" value="check_premium()" style="html=1;verticalAlign=bottom;endArrow=open;dashed=1;endSize=8;edgeStyle=elbowEdgeStyle;elbow=vertical;curved=0;rounded=0;" edge="1" parent="1" source="wv0iCeW0pls4u1Xk4wzR-93" target="wv0iCeW0pls4u1Xk4wzR-38">
          <mxGeometry relative="1" as="geometry">
            <mxPoint x="1540" y="1480" as="sourcePoint" />
            <mxPoint x="1460" y="1480" as="targetPoint" />
            <Array as="points">
              <mxPoint x="1010" y="1480" />
            </Array>
          </mxGeometry>
        </mxCell>
        <mxCell id="wv0iCeW0pls4u1Xk4wzR-97" value="alternative" style="shape=umlFrame;whiteSpace=wrap;html=1;pointerEvents=0;fillColor=#f8cecc;strokeColor=#b85450;" vertex="1" parent="1">
          <mxGeometry x="-50" y="1620" width="2460" height="680" as="geometry" />
        </mxCell>
        <mxCell id="wv0iCeW0pls4u1Xk4wzR-98" value="premium no" style="text;html=1;align=center;verticalAlign=middle;resizable=0;points=[];autosize=1;strokeColor=none;fillColor=none;" vertex="1" parent="1">
          <mxGeometry x="-55" y="1650" width="90" height="30" as="geometry" />
        </mxCell>
        <mxCell id="wv0iCeW0pls4u1Xk4wzR-99" value="" style="shape=umlLifeline;perimeter=lifelinePerimeter;whiteSpace=wrap;html=1;container=1;dropTarget=0;collapsible=0;recursiveResize=0;outlineConnect=0;portConstraint=eastwest;newEdgeStyle={&quot;edgeStyle&quot;:&quot;elbowEdgeStyle&quot;,&quot;elbow&quot;:&quot;vertical&quot;,&quot;curved&quot;:0,&quot;rounded&quot;:0};participant=umlBoundary;" vertex="1" parent="1">
          <mxGeometry x="1840" y="150" width="50" height="2150" as="geometry" />
        </mxCell>
        <mxCell id="wv0iCeW0pls4u1Xk4wzR-101" value="" style="html=1;points=[];perimeter=orthogonalPerimeter;outlineConnect=0;targetShapes=umlLifeline;portConstraint=eastwest;newEdgeStyle={&quot;edgeStyle&quot;:&quot;elbowEdgeStyle&quot;,&quot;elbow&quot;:&quot;vertical&quot;,&quot;curved&quot;:0,&quot;rounded&quot;:0};" vertex="1" parent="wv0iCeW0pls4u1Xk4wzR-99">
          <mxGeometry x="20" y="1530" width="10" height="110" as="geometry" />
        </mxCell>
        <mxCell id="wv0iCeW0pls4u1Xk4wzR-129" value="" style="html=1;points=[];perimeter=orthogonalPerimeter;outlineConnect=0;targetShapes=umlLifeline;portConstraint=eastwest;newEdgeStyle={&quot;edgeStyle&quot;:&quot;elbowEdgeStyle&quot;,&quot;elbow&quot;:&quot;vertical&quot;,&quot;curved&quot;:0,&quot;rounded&quot;:0};" vertex="1" parent="wv0iCeW0pls4u1Xk4wzR-99">
          <mxGeometry x="20" y="2050" width="10" height="70" as="geometry" />
        </mxCell>
        <mxCell id="wv0iCeW0pls4u1Xk4wzR-100" value="Οθόνη Ολοκλήρωσης &lt;br&gt;της Παραγγελίας" style="text;html=1;align=center;verticalAlign=middle;resizable=0;points=[];autosize=1;strokeColor=none;fillColor=none;" vertex="1" parent="1">
          <mxGeometry x="1800" y="110" width="140" height="40" as="geometry" />
        </mxCell>
        <mxCell id="wv0iCeW0pls4u1Xk4wzR-102" value="premium_no()" style="html=1;verticalAlign=bottom;startArrow=oval;endArrow=block;startSize=8;edgeStyle=elbowEdgeStyle;elbow=vertical;curved=0;rounded=0;" edge="1" target="wv0iCeW0pls4u1Xk4wzR-101" parent="1" source="wv0iCeW0pls4u1Xk4wzR-94">
          <mxGeometry x="-0.0608" relative="1" as="geometry">
            <mxPoint x="1250" y="1730" as="sourcePoint" />
            <Array as="points">
              <mxPoint x="1770" y="1680" />
            </Array>
            <mxPoint as="offset" />
          </mxGeometry>
        </mxCell>
        <mxCell id="wv0iCeW0pls4u1Xk4wzR-103" value="total_sum()" style="html=1;verticalAlign=bottom;startArrow=oval;startFill=1;endArrow=block;startSize=8;edgeStyle=elbowEdgeStyle;elbow=vertical;curved=0;rounded=0;" edge="1" parent="1" source="wv0iCeW0pls4u1Xk4wzR-72" target="wv0iCeW0pls4u1Xk4wzR-101">
          <mxGeometry x="-0.3977" width="60" relative="1" as="geometry">
            <mxPoint x="1600" y="1730" as="sourcePoint" />
            <mxPoint x="1660" y="1730" as="targetPoint" />
            <Array as="points">
              <mxPoint x="1820" y="1730" />
            </Array>
            <mxPoint x="1" as="offset" />
          </mxGeometry>
        </mxCell>
        <mxCell id="wv0iCeW0pls4u1Xk4wzR-105" value="finish_order()" style="html=1;verticalAlign=bottom;startArrow=oval;startFill=1;endArrow=block;startSize=8;edgeStyle=elbowEdgeStyle;elbow=vertical;curved=0;rounded=0;" edge="1" parent="1" source="wv0iCeW0pls4u1Xk4wzR-1" target="wv0iCeW0pls4u1Xk4wzR-101">
          <mxGeometry x="0.0552" width="60" relative="1" as="geometry">
            <mxPoint x="75" y="1734.5" as="sourcePoint" />
            <mxPoint x="135" y="1734.5" as="targetPoint" />
            <Array as="points">
              <mxPoint x="1330" y="1750" />
              <mxPoint x="630" y="1730" />
            </Array>
            <mxPoint x="1" as="offset" />
          </mxGeometry>
        </mxCell>
        <mxCell id="wv0iCeW0pls4u1Xk4wzR-106" value="" style="shape=umlLifeline;perimeter=lifelinePerimeter;whiteSpace=wrap;html=1;container=1;dropTarget=0;collapsible=0;recursiveResize=0;outlineConnect=0;portConstraint=eastwest;newEdgeStyle={&quot;edgeStyle&quot;:&quot;elbowEdgeStyle&quot;,&quot;elbow&quot;:&quot;vertical&quot;,&quot;curved&quot;:0,&quot;rounded&quot;:0};participant=umlEntity;" vertex="1" parent="1">
          <mxGeometry x="2010" y="150" width="40" height="2190" as="geometry" />
        </mxCell>
        <mxCell id="wv0iCeW0pls4u1Xk4wzR-107" value="" style="html=1;points=[];perimeter=orthogonalPerimeter;outlineConnect=0;targetShapes=umlLifeline;portConstraint=eastwest;newEdgeStyle={&quot;edgeStyle&quot;:&quot;elbowEdgeStyle&quot;,&quot;elbow&quot;:&quot;vertical&quot;,&quot;curved&quot;:0,&quot;rounded&quot;:0};" vertex="1" parent="wv0iCeW0pls4u1Xk4wzR-106">
          <mxGeometry x="15" y="1640" width="10" height="50" as="geometry" />
        </mxCell>
        <mxCell id="wv0iCeW0pls4u1Xk4wzR-132" value="" style="html=1;points=[];perimeter=orthogonalPerimeter;outlineConnect=0;targetShapes=umlLifeline;portConstraint=eastwest;newEdgeStyle={&quot;edgeStyle&quot;:&quot;elbowEdgeStyle&quot;,&quot;elbow&quot;:&quot;vertical&quot;,&quot;curved&quot;:0,&quot;rounded&quot;:0};" vertex="1" parent="wv0iCeW0pls4u1Xk4wzR-106">
          <mxGeometry x="15" y="2120.33" width="10" height="29.67" as="geometry" />
        </mxCell>
        <mxCell id="wv0iCeW0pls4u1Xk4wzR-108" value="place_order()" style="html=1;verticalAlign=bottom;startArrow=oval;endArrow=block;startSize=8;edgeStyle=elbowEdgeStyle;elbow=vertical;curved=0;rounded=0;" edge="1" target="wv0iCeW0pls4u1Xk4wzR-107" parent="1" source="wv0iCeW0pls4u1Xk4wzR-101">
          <mxGeometry x="0.0065" relative="1" as="geometry">
            <mxPoint x="1960" y="1780" as="sourcePoint" />
            <Array as="points">
              <mxPoint x="1948" y="1790" />
            </Array>
            <mxPoint as="offset" />
          </mxGeometry>
        </mxCell>
        <mxCell id="wv0iCeW0pls4u1Xk4wzR-109" value="return_to_main_page()" style="html=1;verticalAlign=bottom;endArrow=open;dashed=1;endSize=8;edgeStyle=elbowEdgeStyle;elbow=vertical;curved=0;rounded=0;" edge="1" parent="1" source="wv0iCeW0pls4u1Xk4wzR-107" target="wv0iCeW0pls4u1Xk4wzR-3">
          <mxGeometry x="-0.044" relative="1" as="geometry">
            <mxPoint x="1960" y="1839" as="sourcePoint" />
            <mxPoint x="210" y="1810" as="targetPoint" />
            <mxPoint as="offset" />
          </mxGeometry>
        </mxCell>
        <mxCell id="wv0iCeW0pls4u1Xk4wzR-110" value="" style="endArrow=none;html=1;rounded=0;entryX=1;entryY=0.413;entryDx=0;entryDy=0;entryPerimeter=0;fillColor=#f8cecc;strokeColor=#b85450;" edge="1" parent="1" target="wv0iCeW0pls4u1Xk4wzR-97">
          <mxGeometry width="50" height="50" relative="1" as="geometry">
            <mxPoint x="-50" y="1880" as="sourcePoint" />
            <mxPoint x="1950" y="1850" as="targetPoint" />
          </mxGeometry>
        </mxCell>
        <mxCell id="wv0iCeW0pls4u1Xk4wzR-111" value="Παραγγελίες" style="text;html=1;align=center;verticalAlign=middle;resizable=0;points=[];autosize=1;strokeColor=none;fillColor=none;" vertex="1" parent="1">
          <mxGeometry x="1985" y="125" width="90" height="30" as="geometry" />
        </mxCell>
        <mxCell id="wv0iCeW0pls4u1Xk4wzR-112" value="premium yes" style="text;html=1;align=center;verticalAlign=middle;resizable=0;points=[];autosize=1;strokeColor=none;fillColor=none;" vertex="1" parent="1">
          <mxGeometry x="-50" y="1880" width="90" height="30" as="geometry" />
        </mxCell>
        <mxCell id="wv0iCeW0pls4u1Xk4wzR-113" value="" style="shape=umlLifeline;perimeter=lifelinePerimeter;whiteSpace=wrap;html=1;container=1;dropTarget=0;collapsible=0;recursiveResize=0;outlineConnect=0;portConstraint=eastwest;newEdgeStyle={&quot;edgeStyle&quot;:&quot;elbowEdgeStyle&quot;,&quot;elbow&quot;:&quot;vertical&quot;,&quot;curved&quot;:0,&quot;rounded&quot;:0};participant=umlBoundary;" vertex="1" parent="1">
          <mxGeometry x="2170" y="150" width="50" height="2140" as="geometry" />
        </mxCell>
        <mxCell id="wv0iCeW0pls4u1Xk4wzR-116" value="" style="html=1;points=[];perimeter=orthogonalPerimeter;outlineConnect=0;targetShapes=umlLifeline;portConstraint=eastwest;newEdgeStyle={&quot;edgeStyle&quot;:&quot;elbowEdgeStyle&quot;,&quot;elbow&quot;:&quot;vertical&quot;,&quot;curved&quot;:0,&quot;rounded&quot;:0};" vertex="1" parent="wv0iCeW0pls4u1Xk4wzR-113">
          <mxGeometry x="20" y="1790" width="10" height="230" as="geometry" />
        </mxCell>
        <mxCell id="wv0iCeW0pls4u1Xk4wzR-123" value="add_points()" style="html=1;align=left;spacingLeft=2;endArrow=block;rounded=0;edgeStyle=orthogonalEdgeStyle;curved=0;rounded=0;" edge="1" parent="wv0iCeW0pls4u1Xk4wzR-113">
          <mxGeometry relative="1" as="geometry">
            <mxPoint x="25" y="1920" as="sourcePoint" />
            <Array as="points">
              <mxPoint x="55" y="1950" />
            </Array>
            <mxPoint x="30" y="1950.066666666667" as="targetPoint" />
          </mxGeometry>
        </mxCell>
        <mxCell id="wv0iCeW0pls4u1Xk4wzR-114" value="Όθονη Εξαργύρωσης&lt;br&gt;&amp;nbsp;Πόντων" style="text;html=1;align=center;verticalAlign=middle;resizable=0;points=[];autosize=1;strokeColor=none;fillColor=none;" vertex="1" parent="1">
          <mxGeometry x="2130" y="110" width="140" height="40" as="geometry" />
        </mxCell>
        <mxCell id="wv0iCeW0pls4u1Xk4wzR-115" value="premium_yes()" style="html=1;verticalAlign=bottom;startArrow=oval;startFill=1;endArrow=block;startSize=8;edgeStyle=elbowEdgeStyle;elbow=vertical;curved=0;rounded=0;" edge="1" parent="1" source="wv0iCeW0pls4u1Xk4wzR-94" target="wv0iCeW0pls4u1Xk4wzR-113">
          <mxGeometry x="0.0246" width="60" relative="1" as="geometry">
            <mxPoint x="980" y="2080" as="sourcePoint" />
            <mxPoint x="2195" y="2140" as="targetPoint" />
            <Array as="points">
              <mxPoint x="1000" y="1940" />
              <mxPoint x="1050" y="2080" />
              <mxPoint x="2170" y="2140" />
              <mxPoint x="2160" y="2100" />
            </Array>
            <mxPoint as="offset" />
          </mxGeometry>
        </mxCell>
        <mxCell id="wv0iCeW0pls4u1Xk4wzR-117" value="" style="shape=umlLifeline;perimeter=lifelinePerimeter;whiteSpace=wrap;html=1;container=1;dropTarget=0;collapsible=0;recursiveResize=0;outlineConnect=0;portConstraint=eastwest;newEdgeStyle={&quot;edgeStyle&quot;:&quot;elbowEdgeStyle&quot;,&quot;elbow&quot;:&quot;vertical&quot;,&quot;curved&quot;:0,&quot;rounded&quot;:0};participant=umlEntity;" vertex="1" parent="1">
          <mxGeometry x="2340" y="150" width="40" height="2150" as="geometry" />
        </mxCell>
        <mxCell id="wv0iCeW0pls4u1Xk4wzR-119" value="" style="html=1;points=[];perimeter=orthogonalPerimeter;outlineConnect=0;targetShapes=umlLifeline;portConstraint=eastwest;newEdgeStyle={&quot;edgeStyle&quot;:&quot;elbowEdgeStyle&quot;,&quot;elbow&quot;:&quot;vertical&quot;,&quot;curved&quot;:0,&quot;rounded&quot;:0};" vertex="1" parent="wv0iCeW0pls4u1Xk4wzR-117">
          <mxGeometry x="15" y="1850" width="10" height="140" as="geometry" />
        </mxCell>
        <mxCell id="wv0iCeW0pls4u1Xk4wzR-118" value="ποντοι" style="text;html=1;align=center;verticalAlign=middle;resizable=0;points=[];autosize=1;strokeColor=none;fillColor=none;" vertex="1" parent="1">
          <mxGeometry x="2330" y="115" width="60" height="30" as="geometry" />
        </mxCell>
        <mxCell id="wv0iCeW0pls4u1Xk4wzR-120" value="check_points" style="html=1;verticalAlign=bottom;startArrow=oval;endArrow=block;startSize=8;edgeStyle=elbowEdgeStyle;elbow=vertical;curved=0;rounded=0;" edge="1" target="wv0iCeW0pls4u1Xk4wzR-119" parent="1" source="wv0iCeW0pls4u1Xk4wzR-116">
          <mxGeometry relative="1" as="geometry">
            <mxPoint x="2150" y="2130" as="sourcePoint" />
            <Array as="points">
              <mxPoint x="2220" y="2000" />
              <mxPoint x="2300" y="2030" />
            </Array>
          </mxGeometry>
        </mxCell>
        <mxCell id="wv0iCeW0pls4u1Xk4wzR-121" value="points()" style="html=1;verticalAlign=bottom;endArrow=open;dashed=1;endSize=8;edgeStyle=elbowEdgeStyle;elbow=vertical;curved=0;rounded=0;" edge="1" parent="1" source="wv0iCeW0pls4u1Xk4wzR-117" target="wv0iCeW0pls4u1Xk4wzR-116">
          <mxGeometry relative="1" as="geometry">
            <mxPoint x="2310" y="2040" as="sourcePoint" />
            <mxPoint x="2230" y="2040" as="targetPoint" />
            <Array as="points">
              <mxPoint x="2250" y="2050" />
            </Array>
          </mxGeometry>
        </mxCell>
        <mxCell id="wv0iCeW0pls4u1Xk4wzR-124" value="new_points()" style="html=1;verticalAlign=bottom;startArrow=oval;startFill=1;endArrow=block;startSize=8;edgeStyle=elbowEdgeStyle;elbow=vertical;curved=0;rounded=0;" edge="1" parent="1" source="wv0iCeW0pls4u1Xk4wzR-116" target="wv0iCeW0pls4u1Xk4wzR-119">
          <mxGeometry x="0.0323" width="60" relative="1" as="geometry">
            <mxPoint x="2220" y="2140.33" as="sourcePoint" />
            <mxPoint x="2280" y="2140.33" as="targetPoint" />
            <Array as="points">
              <mxPoint x="2250" y="2140" />
            </Array>
            <mxPoint as="offset" />
          </mxGeometry>
        </mxCell>
        <mxCell id="wv0iCeW0pls4u1Xk4wzR-127" value="finish_points()" style="html=1;verticalAlign=bottom;endArrow=open;dashed=1;endSize=8;edgeStyle=elbowEdgeStyle;elbow=vertical;curved=0;rounded=0;" edge="1" parent="1" source="wv0iCeW0pls4u1Xk4wzR-116" target="wv0iCeW0pls4u1Xk4wzR-72">
          <mxGeometry relative="1" as="geometry">
            <mxPoint x="2000" y="2150.33" as="sourcePoint" />
            <mxPoint x="1920" y="2150.33" as="targetPoint" />
            <Array as="points">
              <mxPoint x="1930" y="2170" />
            </Array>
          </mxGeometry>
        </mxCell>
        <mxCell id="wv0iCeW0pls4u1Xk4wzR-128" value="total_sum()" style="html=1;verticalAlign=bottom;startArrow=oval;startFill=1;endArrow=block;startSize=8;edgeStyle=elbowEdgeStyle;elbow=vertical;curved=0;rounded=0;" edge="1" parent="1" source="wv0iCeW0pls4u1Xk4wzR-93" target="wv0iCeW0pls4u1Xk4wzR-116">
          <mxGeometry width="60" relative="1" as="geometry">
            <mxPoint x="1600" y="2000.33" as="sourcePoint" />
            <mxPoint x="1660" y="2000.33" as="targetPoint" />
            <Array as="points">
              <mxPoint x="1980" y="1980" />
              <mxPoint x="2020" y="1970" />
              <mxPoint x="2110" y="2030" />
            </Array>
          </mxGeometry>
        </mxCell>
        <mxCell id="wv0iCeW0pls4u1Xk4wzR-130" value="total_sum()" style="html=1;verticalAlign=bottom;startArrow=oval;endArrow=block;startSize=8;edgeStyle=elbowEdgeStyle;elbow=vertical;curved=0;rounded=0;" edge="1" target="wv0iCeW0pls4u1Xk4wzR-129" parent="1" source="wv0iCeW0pls4u1Xk4wzR-93">
          <mxGeometry relative="1" as="geometry">
            <mxPoint x="1800" y="2180" as="sourcePoint" />
            <Array as="points">
              <mxPoint x="1670" y="2200" />
              <mxPoint x="1560" y="2180" />
            </Array>
          </mxGeometry>
        </mxCell>
        <mxCell id="wv0iCeW0pls4u1Xk4wzR-131" value="finishi_order()" style="html=1;verticalAlign=bottom;startArrow=oval;startFill=1;endArrow=block;startSize=8;edgeStyle=elbowEdgeStyle;elbow=vertical;curved=0;rounded=0;" edge="1" parent="1" source="wv0iCeW0pls4u1Xk4wzR-1" target="wv0iCeW0pls4u1Xk4wzR-129">
          <mxGeometry width="60" relative="1" as="geometry">
            <mxPoint x="1760" y="2230" as="sourcePoint" />
            <mxPoint x="1820" y="2230" as="targetPoint" />
            <Array as="points">
              <mxPoint x="970" y="2230" />
            </Array>
          </mxGeometry>
        </mxCell>
        <mxCell id="wv0iCeW0pls4u1Xk4wzR-133" value="place_order()" style="html=1;verticalAlign=bottom;startArrow=oval;endArrow=block;startSize=8;edgeStyle=elbowEdgeStyle;elbow=vertical;curved=0;rounded=0;" edge="1" target="wv0iCeW0pls4u1Xk4wzR-132" parent="1" source="wv0iCeW0pls4u1Xk4wzR-99">
          <mxGeometry x="0.0331" relative="1" as="geometry">
            <mxPoint x="1965" y="2270.33" as="sourcePoint" />
            <Array as="points">
              <mxPoint x="1910" y="2270" />
            </Array>
            <mxPoint x="1" as="offset" />
          </mxGeometry>
        </mxCell>
      </root>
    </mxGraphModel>
  </diagram>
</mxfile>
